<svg xmlns="http://www.w3.org/2000/svg" width="2083" height="1358" viewBox="0 0 2083 1358" version="1.1">
	<path d="M 194.500 0.682 C 173.958 2.490, 148.710 8.316, 130.407 15.473 C 57.880 43.832, 8.933 105.036, 1.059 177.211 C -0.423 190.802, -0.427 1167.149, 1.055 1180.789 C 3.425 1202.589, 9.238 1222.539, 19.036 1242.500 C 50.444 1306.485, 116.395 1350.013, 192.500 1356.990 C 207.738 1358.387, 1875.262 1358.387, 1890.500 1356.990 C 1957.281 1350.868, 2016.977 1316.351, 2052.036 1263.586 C 2059.254 1252.723, 2068.717 1233.770, 2072.839 1221.921 C 2076.672 1210.902, 2080.826 1192.361, 2081.652 1182.583 C 2082.008 1178.376, 2082.682 1174.697, 2083.150 1174.408 C 2083.617 1174.118, 2083.968 950.596, 2083.930 677.691 C 2083.891 404.786, 2083.515 182.381, 2083.094 183.457 C 2082.591 184.743, 2082.114 182.630, 2081.703 177.305 C 2078.600 137.062, 2058.288 95.160, 2026.534 63.497 C 1993.950 31.005, 1953.764 10.947, 1904 2.339 C 1893.913 0.593, 1860.192 0.518, 1046 0.426 C 579.875 0.374, 196.700 0.489, 194.500 0.682 M 0.496 679 C 0.496 952.075, 0.610 1063.787, 0.750 927.250 C 0.890 790.712, 0.890 567.287, 0.750 430.750 C 0.610 294.212, 0.496 405.925, 0.496 679 M 326.500 695.938 C 308.722 699.593, 292.312 712.604, 283.985 729.647 C 276.844 744.265, 276.877 743.587, 277.313 865 C 277.569 936.340, 278.048 972.209, 278.790 975.779 C 282.362 992.947, 296.448 1010.403, 313 1018.174 C 326.485 1024.504, 342.893 1026.193, 355.500 1022.548 C 373.124 1017.453, 387.799 1005.792, 395.249 990.962 C 402.384 976.760, 402.004 984.193, 401.964 859.701 C 401.925 735.494, 402.249 741.893, 395.301 728.134 C 388.596 714.858, 377.829 705.178, 362.794 698.911 C 356.270 696.192, 354.180 695.831, 343 695.493 C 336.125 695.286, 328.700 695.486, 326.500 695.938 M 1730.500 695.713 C 1726.633 696.246, 1716.864 700.109, 1710.493 703.625 C 1702.622 707.969, 1692.087 719.264, 1687.684 728.080 C 1680.750 741.963, 1681.075 735.535, 1681.036 859.701 C 1680.997 982.741, 1680.727 976.888, 1687.005 989.500 C 1697.808 1011.201, 1718.868 1024.283, 1743 1024.283 C 1774.210 1024.283, 1800.246 1001.829, 1804.591 971.165 C 1806.586 957.092, 1806.593 761.957, 1804.599 747.892 C 1800.969 722.279, 1780.583 700.490, 1756 695.950 C 1751.425 695.105, 1735.957 694.961, 1730.500 695.713 M 896.106 1086.564 C 892.718 1089.415, 890.804 1094.771, 891.655 1099.024 C 891.962 1100.558, 893.765 1103.318, 895.662 1105.157 L 899.111 1108.500 1044.490 1108.500 L 1189.869 1108.500 1192.922 1105.575 C 1198.655 1100.083, 1197.978 1090.004, 1191.613 1086.070 C 1188.267 1084.002, 1188.140 1084, 1043.709 1084 L 899.153 1084 896.106 1086.564" stroke="none" fill="black" fill-rule="evenodd"/>
</svg>